<svg width="33" height="32" viewBox="0 0 33 32" fill="none" xmlns="http://www.w3.org/2000/svg">
<path d="M16.4999 17.7333C16.3266 17.7333 16.1533 17.6933 15.9933 17.6L4.21995 10.7867C3.75328 10.5067 3.57995 9.89333 3.85995 9.41333C4.13995 8.93333 4.75328 8.77333 5.23328 9.05333L16.4999 15.5733L27.6999 9.09333C28.1799 8.81333 28.7933 8.98667 29.0733 9.45333C29.3533 9.93333 29.1799 10.5467 28.7133 10.8267L17.0199 17.6C16.8466 17.68 16.6733 17.7333 16.4999 17.7333Z" fill="white"/>
<path d="M16.5 29.8133C15.9533 29.8133 15.5 29.36 15.5 28.8133V16.72C15.5 16.1733 15.9533 15.72 16.5 15.72C17.0467 15.72 17.5 16.1733 17.5 16.72V28.8133C17.5 29.36 17.0467 29.8133 16.5 29.8133Z" fill="white"/>
<path d="M16.5 30.3333C15.3266 30.3333 14.1666 30.08 13.2466 29.5733L6.12665 25.6133C4.19331 24.5467 2.68665 21.9733 2.68665 19.76V12.2267C2.68665 10.0133 4.19331 7.45333 6.12665 6.37333L13.2466 2.42667C15.0733 1.41333 17.9266 1.41333 19.7533 2.42667L26.8733 6.38667C28.8066 7.45333 30.3133 10.0267 30.3133 12.24V19.7733C30.3133 21.9867 28.8066 24.5467 26.8733 25.6267L19.7533 29.5733C18.8333 30.08 17.6733 30.3333 16.5 30.3333ZM16.5 3.66667C15.66 3.66667 14.8333 3.84 14.22 4.17333L7.09998 8.13333C5.81998 8.84 4.68665 10.76 4.68665 12.2267V19.76C4.68665 21.2267 5.81998 23.1467 7.09998 23.8667L14.22 27.8267C15.4333 28.5067 17.5666 28.5067 18.78 27.8267L25.9 23.8667C27.18 23.1467 28.3133 21.24 28.3133 19.76V12.2267C28.3133 10.76 27.18 8.84 25.9 8.12L18.78 4.16C18.1666 3.84 17.34 3.66667 16.5 3.66667Z" fill="white"/>
</svg>
