<svg width="32" height="32" viewBox="0 0 32 32" fill="none" xmlns="http://www.w3.org/2000/svg">
<path d="M24.2533 23.6667H10.0533C8.73328 23.6667 7.46662 23.1067 6.57328 22.1333C5.67995 21.16 5.22663 19.8533 5.33329 18.5333L6.43996 5.25334C6.47996 4.84 6.33328 4.44001 6.05328 4.13334C5.77328 3.82668 5.38662 3.66667 4.97329 3.66667H2.66663C2.11996 3.66667 1.66663 3.21333 1.66663 2.66667C1.66663 2.12 2.11996 1.66667 2.66663 1.66667H4.98663C5.95997 1.66667 6.87995 2.08 7.53328 2.78666C7.89328 3.18666 8.15995 3.65334 8.30662 4.17334H24.96C26.3066 4.17334 27.5466 4.70667 28.4533 5.66667C29.3466 6.64 29.8 7.90667 29.6933 9.25334L28.9733 19.2533C28.8266 21.6933 26.6933 23.6667 24.2533 23.6667ZM8.37329 6.15999L7.33329 18.6933C7.26663 19.4667 7.51996 20.2 8.03996 20.7733C8.55996 21.3466 9.27995 21.6533 10.0533 21.6533H24.2533C25.64 21.6533 26.8933 20.48 27 19.0933L27.72 9.09334C27.7733 8.30668 27.52 7.56001 27 7.01335C26.48 6.45335 25.76 6.14665 24.9733 6.14665H8.37329V6.15999Z" fill="white"/>
<path d="M21.6667 30.3333C20.2 30.3333 19 29.1333 19 27.6667C19 26.2 20.2 25 21.6667 25C23.1333 25 24.3333 26.2 24.3333 27.6667C24.3333 29.1333 23.1333 30.3333 21.6667 30.3333ZM21.6667 27C21.2933 27 21 27.2933 21 27.6667C21 28.04 21.2933 28.3333 21.6667 28.3333C22.04 28.3333 22.3333 28.04 22.3333 27.6667C22.3333 27.2933 22.04 27 21.6667 27Z" fill="white"/>
<path d="M11 30.3333C9.53337 30.3333 8.33337 29.1333 8.33337 27.6667C8.33337 26.2 9.53337 25 11 25C12.4667 25 13.6667 26.2 13.6667 27.6667C13.6667 29.1333 12.4667 30.3333 11 30.3333ZM11 27C10.6267 27 10.3334 27.2933 10.3334 27.6667C10.3334 28.04 10.6267 28.3333 11 28.3333C11.3734 28.3333 11.6667 28.04 11.6667 27.6667C11.6667 27.2933 11.3734 27 11 27Z" fill="white"/>
<path d="M28 11.6667H12C11.4533 11.6667 11 11.2133 11 10.6667C11 10.12 11.4533 9.66667 12 9.66667H28C28.5467 9.66667 29 10.12 29 10.6667C29 11.2133 28.5467 11.6667 28 11.6667Z" fill="white"/>
</svg>
