<svg width="32" height="32" viewBox="0 0 32 32" fill="none" xmlns="http://www.w3.org/2000/svg">
<path fill-rule="evenodd" clip-rule="evenodd" d="M16 26.8046C10.7495 23.3237 7.71658 20.0616 6.18837 17.2882C4.61505 14.4329 4.65812 12.1539 5.40217 10.5981C6.87627 7.51591 11.6753 6.42281 15.2929 10.0404C15.4804 10.228 15.7348 10.3333 16 10.3333C16.2652 10.3333 16.5196 10.228 16.7071 10.0404C20.3247 6.42284 25.1238 7.51594 26.5979 10.5982C27.3419 12.1539 27.385 14.433 25.8117 17.2883C24.2835 20.0617 21.2505 23.3237 16 26.8046ZM16 7.97947C11.6506 4.3492 5.67535 5.39144 3.5979 9.73521C2.50863 12.0128 2.63502 14.9837 4.43669 18.2534C6.23152 21.5107 9.70919 25.1205 15.4567 28.8396C15.7873 29.0535 16.2127 29.0535 16.5432 28.8396C22.2908 25.1206 25.7685 21.5107 27.5634 18.2535C29.365 14.9838 29.4914 12.0128 28.4021 9.73525C26.3247 5.39149 20.3494 4.34923 16 7.97947Z" fill="white"/>
</svg>
