<svg width="36" height="36" viewBox="0 0 36 36" fill="none" xmlns="http://www.w3.org/2000/svg">
<path fill-rule="evenodd" clip-rule="evenodd" d="M2.5306 2.5306C0 5.06119 0 9.1341 0 17.28V18.72C0 26.8659 0 30.9388 2.5306 33.4694C5.06119 36 9.1341 36 17.28 36H18.72C26.8659 36 30.9388 36 33.4694 33.4694C36 30.9388 36 26.8659 36 18.72V17.28C36 9.1341 36 5.06119 33.4694 2.5306C30.9388 0 26.8659 0 18.72 0H17.28C9.1341 0 5.06119 0 2.5306 2.5306ZM6.0751 10.9501C6.2701 20.3101 10.95 25.9351 19.155 25.9351H19.6202V20.5801C22.6352 20.8801 24.9149 23.0851 25.8299 25.9351H30.0901C28.9201 21.6751 25.8449 19.3201 23.9249 18.4201C25.8449 17.3101 28.5449 14.6101 29.1899 10.9501H25.3199C24.4799 13.9201 21.9902 16.6201 19.6202 16.8751V10.9501H15.75V21.3301C13.35 20.7301 10.3201 17.8201 10.1851 10.9501H6.0751Z" fill="#333333"/>
</svg>
