<?xml version="1.0" encoding="utf-8"?><svg viewBox="0 0 36 36" xmlns="http://www.w3.org/2000/svg" xmlns:xlink="http://www.w3.org/1999/xlink"><style>:root>svg{display:none}:root>svg:target{display:block}</style><svg fill="none" viewBox="0 0 33 32" id="box" xmlns="http://www.w3.org/2000/svg"><path d="M16.5 17.733a.994.994 0 0 1-.507-.133L4.22 10.787a1.014 1.014 0 0 1-.36-1.374c.28-.48.893-.64 1.373-.36l11.267 6.52 11.2-6.48a1.014 1.014 0 0 1 1.373.36c.28.48.107 1.094-.36 1.374L17.02 17.6c-.173.08-.347.133-.52.133Z" fill="#fff"/><path d="M16.5 29.813c-.547 0-1-.453-1-1V16.72c0-.547.453-1 1-1 .547 0 1 .453 1 1v12.093c0 .547-.453 1-1 1Z" fill="#fff"/><path d="M16.5 30.333c-1.173 0-2.333-.253-3.253-.76l-7.12-3.96c-1.934-1.066-3.44-3.64-3.44-5.853v-7.533c0-2.214 1.506-4.774 3.44-5.854l7.12-3.946c1.826-1.014 4.68-1.014 6.506 0l7.12 3.96c1.934 1.066 3.44 3.64 3.44 5.853v7.533c0 2.214-1.506 4.774-3.44 5.854l-7.12 3.946c-.92.507-2.08.76-3.253.76Zm0-26.666c-.84 0-1.667.173-2.28.506L7.1 8.133c-1.28.707-2.413 2.627-2.413 4.094v7.533c0 1.467 1.133 3.387 2.413 4.107l7.12 3.96c1.213.68 3.347.68 4.56 0l7.12-3.96c1.28-.72 2.413-2.627 2.413-4.107v-7.533c0-1.467-1.133-3.387-2.413-4.107l-7.12-3.96c-.613-.32-1.44-.493-2.28-.493Z" fill="#fff"/></svg><svg fill="none" viewBox="0 0 32 32" id="cart" xmlns="http://www.w3.org/2000/svg"><path d="M24.253 23.667h-14.2c-1.32 0-2.586-.56-3.48-1.534a4.764 4.764 0 0 1-1.24-3.6L6.44 5.253a1.45 1.45 0 0 0-.387-1.12 1.442 1.442 0 0 0-1.08-.466H2.667c-.547 0-1-.454-1-1 0-.547.453-1 1-1h2.32c.973 0 1.893.413 2.546 1.12.36.4.627.866.774 1.386H24.96c1.347 0 2.587.534 3.493 1.494a4.699 4.699 0 0 1 1.24 3.586l-.72 10c-.146 2.44-2.28 4.414-4.72 4.414ZM8.373 6.16l-1.04 12.533a2.711 2.711 0 0 0 .707 2.08c.52.574 1.24.88 2.013.88h14.2c1.387 0 2.64-1.173 2.747-2.56l.72-10c.053-.786-.2-1.533-.72-2.08a2.73 2.73 0 0 0-2.027-.866h-16.6v.013ZM21.667 30.333A2.674 2.674 0 0 1 19 27.667C19 26.2 20.2 25 21.667 25c1.466 0 2.666 1.2 2.666 2.667 0 1.466-1.2 2.666-2.666 2.666Zm0-3.333a.66.66 0 0 0-.667.667.66.66 0 0 0 .667.666.66.66 0 0 0 .666-.666.66.66 0 0 0-.666-.667ZM11 30.333a2.674 2.674 0 0 1-2.667-2.666C8.333 26.2 9.533 25 11 25c1.467 0 2.667 1.2 2.667 2.667 0 1.466-1.2 2.666-2.667 2.666ZM11 27a.66.66 0 0 0-.667.667.66.66 0 0 0 .667.666.66.66 0 0 0 .667-.666A.66.66 0 0 0 11 27Z" fill="#fff"/><path d="M28 11.667H12c-.547 0-1-.454-1-1 0-.547.453-1 1-1h16c.547 0 1 .453 1 1 0 .546-.453 1-1 1Z" fill="#fff"/></svg><svg fill="none" viewBox="0 0 25 24" id="down" xmlns="http://www.w3.org/2000/svg"><path fill-rule="evenodd" clip-rule="evenodd" d="M4.793 9.293a1 1 0 0 1 1.414 0l6.293 6.293 6.293-6.293a1 1 0 1 1 1.414 1.414L13.914 17a2 2 0 0 1-2.828 0l-6.293-6.293a1 1 0 0 1 0-1.414Z" fill="#333"/></svg><svg fill="none" viewBox="0 0 32 32" id="favorite" xmlns="http://www.w3.org/2000/svg"><path fill-rule="evenodd" clip-rule="evenodd" d="M16 26.805c-5.25-3.481-8.283-6.743-9.812-9.517-1.573-2.855-1.53-5.134-.786-6.69 1.474-3.082 6.273-4.175 9.89-.558a1 1 0 0 0 1.415 0c3.618-3.617 8.417-2.524 9.89.558.745 1.556.788 3.835-.785 6.69-1.529 2.774-4.562 6.036-9.812 9.517Zm0-18.826C11.65 4.35 5.675 5.391 3.598 9.735c-1.09 2.278-.963 5.249.839 8.518 1.795 3.258 5.272 6.867 11.02 10.587a1 1 0 0 0 1.086 0c5.748-3.72 9.226-7.33 11.02-10.587 1.802-3.27 1.928-6.24.84-8.518C26.324 5.391 20.348 4.35 16 7.98Z" fill="#fff"/></svg><svg fill="none" viewBox="0 0 36 36" id="insta" xmlns="http://www.w3.org/2000/svg"><path d="M17.993 3.244c4.807 0 5.371.02 7.271.107 1.757.078 2.707.371 3.343.621.843.329 1.443.715 2.072 1.343a5.499 5.499 0 0 1 1.342 2.072c.243.636.543 1.586.622 3.344.086 1.9.107 2.464.107 7.273 0 4.808-.021 5.372-.107 7.272-.079 1.758-.372 2.708-.622 3.344-.328.843-.714 1.443-1.342 2.072a5.497 5.497 0 0 1-2.072 1.343c-.636.243-1.586.543-3.343.622-1.9.085-2.464.107-7.271.107s-5.372-.022-7.272-.108c-1.757-.078-2.707-.371-3.342-.621-.843-.329-1.443-.714-2.072-1.343a5.499 5.499 0 0 1-1.343-2.072c-.243-.636-.543-1.586-.621-3.344-.086-1.9-.107-2.464-.107-7.272 0-4.809.021-5.373.107-7.273.078-1.758.371-2.708.621-3.344.329-.843.715-1.443 1.343-2.072A5.497 5.497 0 0 1 7.38 3.972c.635-.243 1.585-.543 3.342-.621 1.9-.093 2.465-.107 7.272-.107Zm0-3.244c-4.886 0-5.5.021-7.422.107C8.657.193 7.35.5 6.207.943a8.77 8.77 0 0 0-3.186 2.079c-1 1-1.614 2.008-2.078 3.186C.5 7.351.193 8.658.107 10.581.021 12.495 0 13.11 0 17.996c0 4.887.021 5.502.107 7.423.086 1.915.393 3.222.836 4.373a8.772 8.772 0 0 0 2.078 3.186c1 1 2.008 1.615 3.186 2.079 1.143.443 2.45.75 4.372.836C12.5 35.979 13.107 36 18 36c4.893 0 5.5-.021 7.421-.107 1.915-.086 3.222-.393 4.372-.836a8.771 8.771 0 0 0 3.186-2.079c1-1 1.614-2.008 2.078-3.186.443-1.144.75-2.45.836-4.373.086-1.922.107-2.529.107-7.423 0-4.893-.021-5.5-.107-7.422-.086-1.915-.393-3.223-.836-4.373a8.772 8.772 0 0 0-2.078-3.186c-1-1-2.008-1.615-3.186-2.08C28.65.494 27.343.186 25.42.1 23.493.021 22.88 0 17.993 0Z" fill="#333"/><path d="M17.993 8.752c-5.1 0-9.243 4.136-9.243 9.244 0 5.109 4.143 9.245 9.243 9.245 5.1 0 9.243-4.144 9.243-9.245 0-5.1-4.143-9.244-9.243-9.244Zm0 15.246a6 6 0 0 1-6-6.002 6 6 0 1 1 12 0 6 6 0 0 1-6 6.002ZM27.6 10.545a2.157 2.157 0 1 0 0-4.315 2.157 2.157 0 0 0 0 4.315Z" fill="#333"/></svg><svg fill="none" viewBox="0 0 18 18" id="search" xmlns="http://www.w3.org/2000/svg"><path fill-rule="evenodd" clip-rule="evenodd" d="M14 8A6 6 0 1 1 2 8a6 6 0 0 1 12 0Zm-1.094 6.32a8 8 0 1 1 1.414-1.414l3.387 3.387a1 1 0 0 1-1.414 1.414l-3.387-3.387Z" fill="#fff"/></svg><svg fill="none" viewBox="0 0 18 18" id="search-gray" xmlns="http://www.w3.org/2000/svg"><path fill-rule="evenodd" clip-rule="evenodd" d="M14 8A6 6 0 1 1 2 8a6 6 0 0 1 12 0Zm-1.094 6.32a8 8 0 1 1 1.414-1.414l3.387 3.387a1 1 0 0 1-1.414 1.414l-3.387-3.387Z" fill="#BDBDBD"/></svg><svg fill="none" viewBox="0 0 36 36" id="vk" xmlns="http://www.w3.org/2000/svg"><path fill-rule="evenodd" clip-rule="evenodd" d="M2.53 2.53C0 5.062 0 9.135 0 17.28v1.44c0 8.146 0 12.219 2.53 14.75C5.062 36 9.135 36 17.28 36h1.44c8.146 0 12.219 0 14.75-2.53C36 30.938 36 26.865 36 18.72v-1.44c0-8.146 0-12.219-2.53-14.75C30.938 0 26.865 0 18.72 0h-1.44C9.134 0 5.061 0 2.53 2.53Zm3.545 8.42c.195 9.36 4.875 14.985 13.08 14.985h.465V20.58c3.015.3 5.295 2.505 6.21 5.355h4.26c-1.17-4.26-4.245-6.615-6.165-7.515 1.92-1.11 4.62-3.81 5.265-7.47h-3.87c-.84 2.97-3.33 5.67-5.7 5.925V10.95h-3.87v10.38c-2.4-.6-5.43-3.51-5.565-10.38h-4.11Z" fill="#333"/></svg></svg>